<svg width="57" height="64" viewBox="0 0 57 64" fill="none" xmlns="http://www.w3.org/2000/svg">
<rect x="0.363403" y="0.446167" width="56.0212" height="62.6882" rx="5" fill="white"/>
<path d="M11.8223 27.5161H15.6419V38.9139H13.0955C12.7578 38.9139 12.434 39.064 12.1952 39.3312C11.9564 39.5984 11.8223 39.9608 11.8223 40.3387C11.8223 40.7165 11.9564 41.0789 12.1952 41.3461C12.434 41.6133 12.7578 41.7634 13.0955 41.7634H43.6525C43.9902 41.7634 44.3141 41.6133 44.5528 41.3461C44.7916 41.0789 44.9258 40.7165 44.9258 40.3387C44.9258 39.9608 44.7916 39.5984 44.5528 39.3312C44.3141 39.064 43.9902 38.9139 43.6525 38.9139H41.1061V27.5161H44.9258C45.2028 27.5158 45.4722 27.4144 45.693 27.2272C45.9139 27.0401 46.0742 26.7775 46.1496 26.4792C46.225 26.1809 46.2114 25.8632 46.1109 25.5744C46.0104 25.2855 45.8284 25.0412 45.5926 24.8785L29.0409 13.4807C28.8403 13.3427 28.6095 13.2697 28.374 13.2697C28.1386 13.2697 27.9077 13.3427 27.7072 13.4807L11.1555 24.8785C10.9196 25.0412 10.7377 25.2855 10.6371 25.5744C10.5366 25.8632 10.523 26.1809 10.5985 26.4792C10.6739 26.7775 10.8342 27.0401 11.055 27.2272C11.2759 27.4144 11.5453 27.5158 11.8223 27.5161ZM18.1883 27.5161H23.2812V38.9139H18.1883V27.5161ZM30.9204 27.5161V38.9139H25.8276V27.5161H30.9204ZM38.5597 38.9139H33.4669V27.5161H38.5597V38.9139ZM28.374 16.3658L40.4281 24.6666H16.3199L28.374 16.3658ZM47.4722 46.0376C47.4722 46.4154 47.338 46.7778 47.0993 47.045C46.8605 47.3122 46.5366 47.4623 46.199 47.4623H10.5491C10.2114 47.4623 9.88757 47.3122 9.64879 47.045C9.41002 46.7778 9.27588 46.4154 9.27588 46.0376C9.27588 45.6597 9.41002 45.2973 9.64879 45.0301C9.88757 44.763 10.2114 44.6129 10.5491 44.6129H46.199C46.5366 44.6129 46.8605 44.763 47.0993 45.0301C47.338 45.2973 47.4722 45.6597 47.4722 46.0376Z" fill="black"/>
</svg>
